<svg width="24" height="24" viewBox="0 0 24 24" fill="none" xmlns="http://www.w3.org/2000/svg">
<circle cx="12" cy="12" r="12" fill="white" fill-opacity="0.9"/>
<path d="M10.2325 16.2678C9.22138 16.2678 8.30985 15.6587 7.92286 14.7246C7.53587 13.7905 7.74963 12.7153 8.46446 12.0003L9.52546 10.9393L10.2325 11.6463L9.17196 12.7068C8.79299 13.0857 8.64499 13.6381 8.7837 14.1558C8.92241 14.6734 9.32677 15.0778 9.84445 15.2165C10.3621 15.3552 10.9145 15.2072 11.2935 14.8283L12.354 13.7678L13.061 14.4753L12.0005 15.5358C11.5325 16.006 10.8959 16.2696 10.2325 16.2678ZM10.586 14.1213L9.87896 13.4143L13.4145 9.87875L14.1215 10.5858L10.5865 14.1208L10.586 14.1213ZM14.4755 13.0608L13.768 12.3538L14.8285 11.2933C15.2126 10.9154 15.3646 10.3606 15.2266 9.83974C15.0886 9.3189 14.6819 8.91208 14.1611 8.77398C13.6403 8.63587 13.0854 8.78771 12.7075 9.17175L11.6465 10.2323L10.9395 9.52525L12.0005 8.46425C12.978 7.49524 14.5549 7.49869 15.5282 8.47198C16.5015 9.44527 16.505 11.0222 15.536 11.9998L14.4755 13.0603V13.0608Z" fill="#080A0B"/>
</svg>
