<svg width="24" height="24" viewBox="0 0 24 24" fill="none" xmlns="http://www.w3.org/2000/svg">
<path d="M0 12C0 18.6274 5.37258 24 12 24C18.6274 24 24 18.6274 24 12C24 5.37258 18.6274 0 12 0C5.37258 0 0 5.37258 0 12Z" fill="white" fill-opacity="0.9"/>
<path d="M20.7099 11.5646C20.7502 11.3522 20.7702 11.1734 20.7794 11.0331C20.7945 10.8017 20.7773 10.458 20.7711 10.3505C20.5579 6.64259 16.711 3.68848 11.9967 3.68848C7.14547 3.68848 3.21289 6.81648 3.21289 10.6751C3.21289 14.2217 6.53527 17.151 10.8395 17.6016C11.1027 17.6291 11.2924 17.8667 11.2633 18.1296L11.08 19.7791C11.0384 20.1536 11.4256 20.426 11.7649 20.2622C15.4015 18.5072 17.576 16.7016 18.8746 15.1374C19.1108 14.8527 19.8814 13.7732 20.0385 13.4897C20.3719 12.8877 20.6018 12.2414 20.7099 11.5646Z" fill="#080A0B"/>
<path d="M7.16621 12.09V9.14707C7.16621 8.89893 6.96504 8.69775 6.7169 8.69775C6.46875 8.69775 6.26758 8.89893 6.26758 9.14707V12.5393C6.26758 12.7874 6.46875 12.9886 6.7169 12.9886H8.51411C8.76226 12.9886 8.96343 12.7874 8.96343 12.5393C8.96343 12.2911 8.76226 12.09 8.51411 12.09H7.16621Z" fill="white" fill-opacity="0.9"/>
<path d="M9.93816 12.9886H9.74173C9.54782 12.9886 9.39062 12.8314 9.39062 12.6375V9.04886C9.39062 8.85495 9.54782 8.69775 9.74173 8.69775H9.93816C10.1321 8.69775 10.2893 8.85495 10.2893 9.04886V12.6375C10.2893 12.8314 10.1321 12.9886 9.93816 12.9886Z" fill="white" fill-opacity="0.9"/>
<path d="M13.5688 9.14758V11.2199C13.5688 11.2199 11.7744 8.87942 11.747 8.84866C11.6613 8.75245 11.535 8.69325 11.3947 8.69857C11.1503 8.70784 10.9629 8.92144 10.9629 9.16601V12.5397C10.9629 12.7879 11.1641 12.9891 11.4122 12.9891C11.6604 12.9891 11.8615 12.7879 11.8615 12.5397V10.48C11.8615 10.48 13.6832 12.8409 13.7099 12.8662C13.7894 12.9415 13.8961 12.988 14.014 12.9891C14.2635 12.9913 14.4674 12.7706 14.4674 12.5211V9.14758C14.4674 8.89943 14.2663 8.69826 14.0181 8.69826C13.77 8.69831 13.5688 8.89943 13.5688 9.14758Z" fill="white" fill-opacity="0.9"/>
<path d="M17.8384 9.14707C17.8384 8.89893 17.6373 8.69775 17.3891 8.69775H15.5919C15.3438 8.69775 15.1426 8.89893 15.1426 9.14707V12.5393C15.1426 12.7874 15.3438 12.9886 15.5919 12.9886H17.3891C17.6373 12.9886 17.8384 12.7874 17.8384 12.5393C17.8384 12.2911 17.6373 12.09 17.3891 12.09H16.0412V11.2924H17.3891C17.6373 11.2924 17.8384 11.0913 17.8384 10.8431C17.8384 10.595 17.6373 10.3938 17.3891 10.3938H16.0412V9.59628H17.3891C17.6373 9.59639 17.8384 9.39522 17.8384 9.14707Z" fill="white" fill-opacity="0.9"/>
</svg>
