<svg width="24" height="24" viewBox="0 0 24 24" fill="none" xmlns="http://www.w3.org/2000/svg">
<g clip-path="url(#clip0)">
<path d="M11.9998 24.0005C18.6271 24.0005 23.9996 18.6281 23.9996 12.0008C23.9996 5.37346 18.6271 0.000976562 11.9998 0.000976562C5.37249 0.000976562 0 5.37346 0 12.0008C0 18.6281 5.37249 24.0005 11.9998 24.0005Z" fill="white" fill-opacity="0.9"/>
<path d="M12.9684 16.0698C12.0612 15.9997 11.68 15.5498 10.9685 15.1179C10.5775 17.1695 10.0997 19.1362 8.68423 20.1636C8.24679 17.0628 9.32552 14.7338 9.8265 12.2616C8.97258 10.8242 9.92917 7.93085 11.7303 8.64381C13.947 9.5204 9.81109 13.9887 12.5876 14.5468C15.4863 15.1295 16.6696 9.51719 14.8719 7.69171C12.2747 5.05615 7.3118 7.63181 7.92208 11.4047C8.07074 12.3271 9.02392 12.6071 8.30283 13.8798C6.64056 13.5117 6.14472 12.2007 6.20846 10.4528C6.31135 7.59181 8.77921 5.58857 11.2545 5.31134C14.3851 4.96096 17.3233 6.46088 17.7289 9.40553C18.1851 12.729 16.3156 16.3282 12.9684 16.0698Z" fill="#080A0B"/>
</g>
<defs>
<clipPath id="clip0">
<rect width="24" height="24" fill="white"/>
</clipPath>
</defs>
</svg>
