<svg width="24" height="24" viewBox="0 0 24 24" fill="none" xmlns="http://www.w3.org/2000/svg">
<path d="M23.281 14.631L21.0751 12.906C21.1041 12.64 21.1271 12.329 21.1271 12C21.1271 11.671 21.1031 11.36 21.0751 11.094L23.2831 9.36802C23.6931 9.04402 23.806 8.469 23.5441 7.99003L21.25 4.02103C20.999 3.56405 20.4361 3.35503 19.9231 3.54403L17.3201 4.58902C16.8221 4.22902 16.2991 3.92503 15.758 3.68203L15.362 0.921047C15.2971 0.396 14.8411 0 14.3021 0H9.70207C9.16305 0 8.70705 0.396 8.64307 0.911016L8.24608 3.68203C7.72207 3.91903 7.2071 4.21805 6.68608 4.59005L4.07608 3.54206C3.5771 3.34706 3.00907 3.55308 2.75908 4.01105L0.462068 7.98605C0.191083 8.44406 0.302083 9.03806 0.722083 9.37003L2.92807 11.094C2.89305 11.4321 2.87608 11.725 2.87608 12C2.87608 12.2751 2.8931 12.568 2.9261 12.906L0.718099 14.6331C0.309068 14.957 0.197036 15.532 0.458036 16.011L2.75205 19.98C3.00105 20.436 3.56304 20.644 4.07904 20.457L6.68205 19.412C7.18005 19.771 7.70407 20.075 8.24505 20.319L8.64105 23.079C8.70607 23.604 9.16207 24 9.70104 24H14.301C14.84 24 15.296 23.604 15.36 23.089L15.757 20.319C16.281 20.082 16.796 19.783 17.317 19.411L19.927 20.459C20.424 20.652 20.994 20.448 21.244 19.99L23.55 16.001C23.8051 15.533 23.693 14.958 23.281 14.631ZM22.676 15.511L20.294 19.529L17.4311 18.379C17.2691 18.314 17.0851 18.339 16.9451 18.443C16.325 18.907 15.7261 19.256 15.1121 19.507C14.948 19.574 14.831 19.723 14.8061 19.899L14.3011 23L9.63405 22.947L9.19704 19.9C9.17102 19.724 9.05505 19.575 8.89104 19.508C8.25204 19.246 7.63704 18.889 7.06202 18.447C6.973 18.378 6.865 18.3429 6.757 18.3429C6.694 18.3429 6.631 18.354 6.57002 18.3789L3.62501 19.4899L1.33099 15.5209C1.30999 15.4819 1.31397 15.4369 1.33797 15.4179L3.76497 13.521C3.90297 13.413 3.97497 13.239 3.95299 13.065C3.89997 12.6459 3.87597 12.3069 3.87597 12C3.87597 11.693 3.90096 11.355 3.95299 10.935C3.97497 10.76 3.90297 10.587 3.76497 10.479L1.32607 8.49L3.70807 4.47202L6.57105 5.622C6.73404 5.688 6.91704 5.66302 7.05804 5.55802C7.67702 5.09302 8.27702 4.74502 8.89104 4.494C9.05505 4.42598 9.17102 4.27702 9.19605 4.10198L9.70207 0.999984L14.3701 1.05398L14.8061 4.10198C14.8321 4.278 14.948 4.42697 15.1121 4.494C15.7501 4.755 16.3651 5.112 16.9411 5.55502C17.0821 5.66302 17.2671 5.68903 17.4321 5.622L20.3771 4.51102L22.6711 8.48002C22.6921 8.51902 22.6881 8.56303 22.6641 8.58202L20.2371 10.479C20.0991 10.587 20.0271 10.76 20.0491 10.935C20.0871 11.239 20.1261 11.604 20.1261 12C20.1261 12.397 20.0871 12.761 20.0491 13.065C20.0271 13.239 20.0991 13.413 20.2371 13.521L22.6611 15.417C22.687 15.438 22.6921 15.483 22.676 15.511Z" fill="white"/>
<path d="M12.001 7C9.244 7 7.00098 9.24302 7.00098 12C7.00098 14.757 9.244 17 12.001 17C14.758 17 17.001 14.757 17.001 12C17.001 9.24302 14.758 7 12.001 7ZM12.001 16C9.79501 16 8.00101 14.206 8.00101 12C8.00101 9.79404 9.79501 8.00003 12.001 8.00003C14.207 8.00003 16.001 9.79404 16.001 12C16.001 14.206 14.207 16 12.001 16Z" fill="white"/>
</svg>
