<svg width="24" height="24" viewBox="0 0 24 24" fill="none" xmlns="http://www.w3.org/2000/svg">
<circle cx="12" cy="12" r="12" fill="white" fill-opacity="0.9"/>
<path d="M15.7535 9.43916C16.1742 9.18763 16.489 8.79155 16.6392 8.32489C16.2438 8.55948 15.8112 8.72473 15.3601 8.8135C14.7347 8.15194 13.7439 7.99095 12.9412 8.42048C12.1385 8.85001 11.7228 9.76373 11.9263 10.6511C10.3068 10.5698 8.79792 9.80476 7.77519 8.54643C7.24145 9.46705 7.5142 10.6439 8.39851 11.2359C8.07874 11.2256 7.76605 11.139 7.48653 10.9834C7.48653 10.9918 7.48653 11.0003 7.48653 11.0087C7.48672 11.9677 8.16259 12.7938 9.10256 12.9838C8.80595 13.0645 8.49483 13.0764 8.19293 13.0185C8.45727 13.8387 9.21312 14.4005 10.0746 14.4173C9.3611 14.9773 8.47993 15.281 7.5729 15.2795C7.41212 15.2797 7.25148 15.2705 7.0918 15.2518C8.01287 15.8437 9.0849 16.1578 10.1798 16.1567C11.703 16.1672 13.1668 15.5667 14.2439 14.4895C15.3209 13.4124 15.9213 11.9485 15.9107 10.4253C15.9107 10.338 15.9087 10.2512 15.9046 10.1648C16.2991 9.87971 16.6395 9.52654 16.91 9.12187C16.5425 9.28477 16.1526 9.39172 15.7535 9.43916Z" fill="#080A0B"/>
</svg>
