<svg width="44" height="44" viewBox="0 0 44 44" fill="none" xmlns="http://www.w3.org/2000/svg">
<path d="M0 22C0 34.1503 9.84974 44 22 44C34.1503 44 44 34.1503 44 22C44 9.84974 34.1503 0 22 0C9.84974 0 0 9.84974 0 22Z" fill="#00C200"/>
<path d="M37.9704 21.2014C38.0444 20.8118 38.081 20.484 38.0978 20.2269C38.1256 19.8026 38.0939 19.1726 38.0826 18.9754C37.6918 12.1776 30.6391 6.76172 21.9961 6.76172C13.1023 6.76172 5.89258 12.4964 5.89258 19.5705C5.89258 26.0726 11.9836 31.443 19.8748 32.2691C20.3572 32.3196 20.7051 32.7551 20.6516 33.2372L20.3156 36.2612C20.2393 36.9477 20.9492 37.4471 21.5712 37.1469C28.2383 33.9293 32.2249 30.6192 34.6056 27.7514C35.0388 27.2295 36.4514 25.2504 36.7394 24.7306C37.3508 23.627 37.7722 22.442 37.9704 21.2014Z" fill="white"/>
<path d="M13.1416 22.1644V16.7691C13.1416 16.3141 12.7728 15.9453 12.3179 15.9453C11.863 15.9453 11.4941 16.3141 11.4941 16.7691V22.9881C11.4941 23.4431 11.863 23.8119 12.3179 23.8119H15.6128C16.0677 23.8119 16.4365 23.4431 16.4365 22.9881C16.4365 22.5332 16.0677 22.1644 15.6128 22.1644H13.1416Z" fill="#00C500"/>
<path d="M18.2226 23.8119H17.8624C17.5069 23.8119 17.2188 23.5237 17.2188 23.1682V16.589C17.2188 16.2335 17.5069 15.9453 17.8624 15.9453H18.2226C18.5781 15.9453 18.8662 16.2335 18.8662 16.589V23.1682C18.8662 23.5237 18.5781 23.8119 18.2226 23.8119Z" fill="#00C500"/>
<path d="M24.8791 16.771V20.5703C24.8791 20.5703 21.5894 16.2794 21.5392 16.223C21.382 16.0466 21.1504 15.9381 20.8933 15.9479C20.4452 15.9649 20.1016 16.3565 20.1016 16.8048V22.99C20.1016 23.4449 20.4704 23.8138 20.9253 23.8138C21.3802 23.8138 21.7491 23.4449 21.7491 22.99V19.2138C21.7491 19.2138 25.0888 23.5421 25.1378 23.5886C25.2835 23.7265 25.4792 23.8118 25.6952 23.8138C26.1526 23.8179 26.5266 23.4133 26.5266 22.9558V16.771C26.5266 16.3161 26.1577 15.9473 25.7028 15.9473C25.2479 15.9474 24.8791 16.3161 24.8791 16.771Z" fill="#00C500"/>
<path d="M32.7041 16.7691C32.7041 16.3141 32.3353 15.9453 31.8804 15.9453H28.5855C28.1305 15.9453 27.7617 16.3141 27.7617 16.7691V22.9881C27.7617 23.4431 28.1305 23.8119 28.5855 23.8119H31.8804C32.3353 23.8119 32.7041 23.4431 32.7041 22.9881C32.7041 22.5332 32.3353 22.1644 31.8804 22.1644H29.4092V20.7022H31.8804C32.3353 20.7022 32.7041 20.3334 32.7041 19.8785C32.7041 19.4236 32.3353 19.0547 31.8804 19.0547H29.4092V17.5926H31.8804C32.3353 17.5928 32.7041 17.224 32.7041 16.7691Z" fill="#00C500"/>
</svg>
