<svg width="44" height="44" viewBox="0 0 44 44" fill="none" xmlns="http://www.w3.org/2000/svg">
<path d="M21.9996 43.9992C34.1497 43.9992 43.9992 34.1497 43.9992 21.9996C43.9992 9.84956 34.1497 0 21.9996 0C9.84956 0 0 9.84956 0 21.9996C0 34.1497 9.84956 43.9992 21.9996 43.9992Z" fill="#CB2027"/>
<path d="M23.776 29.4603C22.1128 29.3317 21.414 28.5069 20.1097 27.7152C19.3928 31.4764 18.5167 35.082 15.9217 36.9655C15.1198 31.2807 17.0974 27.0108 18.0159 22.4786C16.4504 19.8433 18.2041 14.5388 21.5062 15.8459C25.5701 17.453 17.9877 25.6449 23.0779 26.6681C28.3922 27.7363 30.5616 17.4471 27.2659 14.1004C22.5042 9.26855 13.4056 13.9906 14.5245 20.9076C14.797 22.5986 16.5445 23.1119 15.2225 25.4453C12.175 24.7704 11.266 22.3668 11.3828 19.1625C11.5715 13.9173 16.0959 10.2446 20.634 9.7364C26.3733 9.09404 31.7601 11.8439 32.5036 17.2424C33.3401 23.3355 29.9126 29.934 23.776 29.4603Z" fill="#F1F2F2"/>
</svg>
