<svg width="24" height="24" viewBox="0 0 24 24" fill="none" xmlns="http://www.w3.org/2000/svg">
<circle cx="12" cy="12" r="12" fill="#54ACEC"/>
<path d="M10.2325 16.2683C9.22138 16.2683 8.30985 15.6592 7.92286 14.7251C7.53587 13.791 7.74963 12.7158 8.46446 12.0007L9.52546 10.9397L10.2325 11.6467L9.17196 12.7072C8.79299 13.0862 8.64499 13.6386 8.7837 14.1563C8.92241 14.6739 9.32677 15.0783 9.84445 15.217C10.3621 15.3557 10.9145 15.2077 11.2935 14.8287L12.354 13.7682L13.061 14.4757L12.0005 15.5362C11.5325 16.0065 10.8959 16.2701 10.2325 16.2683ZM10.586 14.1217L9.87896 13.4147L13.4145 9.87924L14.1215 10.5862L10.5865 14.1212L10.586 14.1217ZM14.4755 13.0612L13.768 12.3542L14.8285 11.2937C15.2126 10.9159 15.3646 10.3611 15.2266 9.84023C15.0886 9.31939 14.6819 8.91257 14.1611 8.77446C13.6403 8.63636 13.0854 8.7882 12.7075 9.17224L11.6465 10.2327L10.9395 9.52574L12.0005 8.46474C12.978 7.49573 14.5549 7.49918 15.5282 8.47247C16.5015 9.44576 16.505 11.0227 15.536 12.0002L14.4755 13.0607V13.0612Z" fill="white"/>
</svg>
