<svg width="44" height="44" viewBox="0 0 44 44" fill="none" xmlns="http://www.w3.org/2000/svg">
<circle cx="22" cy="22" r="22" fill="#54ACEC"/>
<path d="M28.8797 17.3055C29.6511 16.8443 30.2283 16.1182 30.5035 15.2626C29.7786 15.6927 28.9856 15.9957 28.1586 16.1584C27.0121 14.9456 25.1955 14.6504 23.7239 15.4379C22.2524 16.2253 21.4902 17.9005 21.8632 19.5273C18.8941 19.3782 16.1279 17.9757 14.2529 15.6688C13.2744 17.3566 13.7744 19.5142 15.3956 20.5995C14.8094 20.5806 14.2361 20.4219 13.7237 20.1365C13.7237 20.152 13.7237 20.1675 13.7237 20.183C13.724 21.9411 14.9631 23.4555 16.6864 23.804C16.1426 23.9519 15.5722 23.9737 15.0187 23.8677C15.5034 25.3712 16.8891 26.4012 18.4685 26.432C17.1604 27.4586 15.5449 28.0154 13.882 28.0127C13.5873 28.0131 13.2928 27.9962 13 27.9619C14.6886 29.047 16.654 29.623 18.6612 29.621C21.4538 29.6402 24.1375 28.5392 26.1121 26.5645C28.0867 24.5897 29.1874 21.9059 29.168 19.1134C29.168 18.9533 29.1643 18.7941 29.1568 18.6358C29.88 18.1131 30.5042 17.4656 31 16.7238C30.3262 17.0224 29.6116 17.2185 28.8797 17.3055Z" fill="white"/>
</svg>
