<?xml version="1.0" encoding="utf-8"?>
<!-- Generator: Adobe Illustrator 25.3.1, SVG Export Plug-In . SVG Version: 6.00 Build 0)  -->
<svg version="1.1" id="Layer_1" xmlns="http://www.w3.org/2000/svg" xmlns:xlink="http://www.w3.org/1999/xlink" x="0px" y="0px"
	 viewBox="0 0 1000 1000" style="enable-background:new 0 0 1000 1000;" xml:space="preserve">
<style type="text/css">
	.st0{fill:#FFFFFF;}
</style>
<path class="st0" d="M844.47,100H155.53c-30.67,0-55.53,24.86-55.53,55.53v428.12c0,14.73,5.85,28.85,16.26,39.27l277.07,277.07
	l-0.01,0.01h90.03V565.89c-67.46-8.41-119.29-67.18-116.58-137.53c2.66-69.04,58.84-125.26,127.88-127.96
	c76.08-2.98,138.69,57.81,138.69,133.23c0,68-50.91,124.06-116.69,132.26V900h90.03l-0.01-0.01l277.07-277.05
	C894.15,612.52,900,598.4,900,583.67V155.53C900,124.86,875.14,100,844.47,100z"/>
</svg>
