<svg width="30" height="30" viewBox="0 0 30 30" fill="none" xmlns="http://www.w3.org/2000/svg">
<path d="M0.581055 6.61108H3.13387V21.7768C4.3735 21.5895 5.62513 21.4923 6.87879 21.4861C8.62942 21.4576 10.3726 21.721 12.0368 22.2653L13.4498 23.3934C12.6183 23.3004 10.112 23.2538 9.29204 23.2538C6.58338 23.2304 3.89776 23.7524 1.39517 24.789L0.581055 25.1379V6.61108Z" fill="#54ACEC"/>
<path d="M28.5987 24.789C26.0961 23.7524 23.4105 23.2304 20.7019 23.2538C19.8761 23.2538 17.5152 23.3469 16.6895 23.4399L17.9571 22.2769C19.6281 21.7264 21.3793 21.4592 23.1384 21.4861C24.392 21.4925 25.6436 21.5897 26.8833 21.7768V6.61108H29.4361V25.1437L28.5987 24.789Z" fill="#54ACEC"/>
<path d="M14.0962 23.2466C12.8692 22.4441 10.6071 21.502 6.87386 21.502C5.84139 21.506 4.81016 21.5741 3.78605 21.7056L3.13477 21.787V5.34775L3.58834 5.24308C4.7627 4.98257 5.96177 4.85005 7.16462 4.84766C9.44413 4.84766 12.625 5.37683 14.8522 7.88894L14.9975 8.03432V23.8397L14.0962 23.2466Z" fill="white"/>
<path d="M14.998 8.03443L15.1434 7.87161C17.3706 5.35368 20.5573 4.83032 22.831 4.83032C24.0338 4.83294 25.2329 4.96552 26.4072 5.22575L26.8608 5.33042V21.7696L26.2095 21.6882C25.1912 21.5574 24.1658 21.4894 23.1392 21.4847C19.3884 21.4847 17.1438 22.4442 15.9168 23.2292L15.0155 23.8107L14.998 8.03443Z" fill="white"/>
<path d="M29.4127 6.02962H27.4414V5.35507C27.452 5.08809 27.2793 4.84814 27.0227 4.77356C25.6541 4.41492 24.2448 4.23509 22.83 4.23858C20.504 4.23858 17.3348 4.76193 14.9913 7.14612C12.6652 4.73867 9.47277 4.23858 7.15255 4.23858C5.73774 4.23509 4.32845 4.41492 2.95988 4.77356C2.70329 4.84814 2.53058 5.08809 2.54119 5.35507V6.0238H0.581508C0.26037 6.0238 0 6.28417 0 6.60531V25.1787C0 25.4998 0.26037 25.7602 0.581508 25.7602C0.681382 25.7599 0.779512 25.7339 0.866447 25.6846C0.924598 25.6555 6.73968 22.4747 14.8575 24.5216H14.9448H14.9971C15.0435 24.5272 15.0903 24.5272 15.1367 24.5216C23.2778 22.4572 29.0928 25.6323 29.1277 25.6846C29.3076 25.7885 29.5293 25.7885 29.7092 25.6846C29.8881 25.5814 29.9988 25.391 30 25.1845V6.61113C30 6.28999 29.7397 6.02962 29.4185 6.02962C29.4166 6.02962 29.4146 6.02962 29.4127 6.02962ZM1.16302 24.2541V7.19264H2.55282V21.7769C2.54919 22.098 2.80658 22.3613 3.12771 22.3649C3.15912 22.3653 3.19052 22.3631 3.22155 22.3584C4.42455 22.1747 5.6391 22.0775 6.85598 22.0676C8.54163 22.0384 10.2202 22.2919 11.8221 22.8178C8.20471 22.3803 4.53554 22.8747 1.16302 24.2541ZM14.4156 22.7654C13.206 21.9746 10.8451 20.9104 6.85598 20.9104C5.79829 20.9128 4.74183 20.9808 3.69258 21.1139V5.81446C4.82477 5.56223 5.98096 5.4335 7.14092 5.43067C9.31576 5.43067 12.3163 5.93076 14.3981 8.28006L14.4156 22.7654ZM15.5786 8.28006C17.6604 5.95402 20.661 5.43067 22.8358 5.43067C23.9957 5.43408 25.1519 5.56274 26.2842 5.81446V21.1139C25.2408 20.9795 24.1902 20.9096 23.1382 20.9046C19.1723 20.9046 16.8056 21.9688 15.5786 22.7596V8.28006ZM28.8312 24.2541C25.4514 22.871 21.7738 22.3765 18.1489 22.8178C19.7582 22.29 21.4448 22.0364 23.1382 22.0676C24.3627 22.0744 25.5851 22.1697 26.7959 22.3526C27.1134 22.4007 27.4099 22.1824 27.4581 21.8649C27.4628 21.8338 27.465 21.8024 27.4646 21.771V7.19264H28.8544L28.8312 24.2541Z" fill="#080A0B"/>
</svg>
