<svg width="18" height="18" viewBox="0 0 18 18" fill="none" xmlns="http://www.w3.org/2000/svg">
<g opacity="0.75" clip-path="url(#clip0)">
<path d="M14.4785 13.6953C13.4001 13.6953 12.522 14.5734 12.522 15.6518C12.522 16.7302 13.4 17.6084 14.4785 17.6084C15.5569 17.6084 16.435 16.7303 16.435 15.6518C16.435 14.5734 15.5569 13.6953 14.4785 13.6953ZM14.4785 16.8257C13.8313 16.8257 13.3046 16.2991 13.3046 15.6518C13.3046 15.0046 13.8313 14.4779 14.4785 14.4779C15.1257 14.4779 15.6524 15.0046 15.6524 15.6518C15.6524 16.2991 15.1257 16.8257 14.4785 16.8257Z" fill="white"/>
<path d="M6.65231 13.6953C5.57389 13.6953 4.6958 14.5734 4.6958 15.6518C4.6958 16.7302 5.57389 17.6084 6.65231 17.6084C7.73074 17.6084 8.60883 16.7303 8.60883 15.6519C8.60883 14.5734 7.73077 13.6953 6.65231 13.6953ZM6.65231 16.8257C6.00508 16.8257 5.4784 16.2991 5.4784 15.6518C5.4784 15.0046 6.00508 14.4779 6.65231 14.4779C7.29954 14.4779 7.82623 15.0046 7.82623 15.6518C7.82623 16.2991 7.29954 16.8257 6.65231 16.8257Z" fill="white"/>
<path d="M16.0435 12.1307H7.01139C6.08242 12.1307 5.27557 11.4694 5.09321 10.5577L3.12261 0.706211C3.08582 0.52308 2.9254 0.391602 2.73915 0.391602H0.391317C0.175317 0.391602 0 0.566918 0 0.782919C0 0.998919 0.175317 1.17424 0.391317 1.17424H2.41826L4.32547 10.7119C4.58062 11.9875 5.71069 12.9134 7.01139 12.9134H16.0435C16.2595 12.9134 16.4348 12.7381 16.4348 12.5221C16.4348 12.3061 16.2595 12.1307 16.0435 12.1307Z" fill="white"/>
<path d="M17.9021 2.87151C17.8278 2.78776 17.7214 2.73926 17.6087 2.73926H3.52169C3.30569 2.73926 3.13037 2.91457 3.13037 3.13058C3.13037 3.34658 3.30569 3.52186 3.52169 3.52186H17.1657L16.6093 7.97176C16.5357 8.55795 16.0348 9.00011 15.444 9.00011H4.6956C4.4796 9.00011 4.30429 9.17543 4.30429 9.39143C4.30429 9.60743 4.4796 9.78275 4.6956 9.78275H15.444C16.4285 9.78275 17.2635 9.0463 17.3856 8.06883L17.9968 3.17907C18.0109 3.06792 17.9765 2.95522 17.9021 2.87151Z" fill="white"/>
</g>
<defs>
<clipPath id="clip0">
<rect width="18" height="18" fill="white"/>
</clipPath>
</defs>
</svg>
