<svg width="19" height="19" viewBox="0 0 19 19" fill="none" xmlns="http://www.w3.org/2000/svg">
<path d="M19 19V1.9777C19 1.9777 19 0 17 2.41862e-05H0L19 19Z" fill="#54ACEC"/>
<path fill-rule="evenodd" clip-rule="evenodd" d="M16.7298 3.12015C16.8873 3.25793 16.9016 3.49796 16.7615 3.65341L12.8188 8.02958C12.678 8.18585 12.4363 8.19578 12.2831 8.05163L10.0016 5.90378C9.85933 5.76983 9.84571 5.54663 9.96778 5.39405C10.1025 5.22567 10.3533 5.2025 10.5136 5.34668L12.2838 6.9389C12.4376 7.07727 12.6745 7.0649 12.813 6.91126L16.2044 3.15117C16.3416 2.99901 16.5756 2.98522 16.7298 3.12015Z" fill="white"/>
</svg>
