<svg width="161" height="161" viewBox="0 0 161 161" fill="none" xmlns="http://www.w3.org/2000/svg">
<circle cx="80.5" cy="80.5" r="80.5" fill="#E4E4E4"/>
<path d="M64.3 104.8C59.845 104.8 56.2405 108.445 56.2405 112.9C56.2405 117.355 59.845 121 64.3 121C68.755 121 72.4 117.355 72.4 112.9C72.4 108.445 68.755 104.8 64.3 104.8ZM40 40V48.1H48.1L62.68 78.8395L57.2125 88.762C56.5645 89.896 56.2 91.2325 56.2 92.65C56.2 97.105 59.845 100.75 64.3 100.75H112.9V92.65H66.001C65.434 92.65 64.9885 92.2045 64.9885 91.6375L65.11 91.1515L68.755 84.55H98.9275C101.965 84.55 104.638 82.8895 106.015 80.3785L120.514 54.094C120.838 53.527 121 52.8385 121 52.15C121 49.9225 119.178 48.1 116.95 48.1H57.0505L53.2435 40H40ZM104.8 104.8C100.345 104.8 96.7405 108.445 96.7405 112.9C96.7405 117.355 100.345 121 104.8 121C109.255 121 112.9 117.355 112.9 112.9C112.9 108.445 109.255 104.8 104.8 104.8Z" fill="white"/>
</svg>
