<svg width="48" height="34" viewBox="0 0 48 34" fill="none" xmlns="http://www.w3.org/2000/svg">
<rect x="0.5" y="0.5" width="47" height="33" rx="3.5" fill="white" stroke="#D9D9D9"/>
<path fill-rule="evenodd" clip-rule="evenodd" d="M24.084 23.4613C22.5042 24.7793 20.4548 25.5749 18.2155 25.5749C13.2187 25.5749 9.16797 21.6135 9.16797 16.7269C9.16797 11.8403 13.2187 7.87891 18.2155 7.87891C20.4548 7.87891 22.5042 8.67453 24.084 9.99249C25.6639 8.67453 27.7132 7.87891 29.9526 7.87891C34.9494 7.87891 39.0001 11.8403 39.0001 16.7269C39.0001 21.6135 34.9494 25.5749 29.9526 25.5749C27.7132 25.5749 25.6639 24.7793 24.084 23.4613Z" fill="#ED0006"/>
<path fill-rule="evenodd" clip-rule="evenodd" d="M24.084 23.461C26.0291 21.8381 27.2625 19.4234 27.2625 16.7269C27.2625 14.0305 26.0291 11.6157 24.084 9.99283C25.6639 8.67466 27.7134 7.87891 29.9529 7.87891C34.9498 7.87891 39.0005 11.8403 39.0005 16.7269C39.0005 21.6135 34.9498 25.5749 29.9529 25.5749C27.7134 25.5749 25.6639 24.7792 24.084 23.461Z" fill="#F9A000"/>
<path fill-rule="evenodd" clip-rule="evenodd" d="M24.0842 23.461C26.0296 21.8381 27.2632 19.4233 27.2632 16.7266C27.2632 14.03 26.0296 11.6151 24.0842 9.99219C22.1388 11.6151 20.9053 14.03 20.9053 16.7266C20.9053 19.4233 22.1388 21.8381 24.0842 23.461Z" fill="#FF5E00"/>
</svg>
