<svg width="149" height="121" viewBox="0 0 149 121" fill="none" xmlns="http://www.w3.org/2000/svg">
<circle cx="81.9038" cy="56.7026" r="52.5024" fill="#F1F1F1"/>
<rect x="5.90953" y="22.3439" width="53.6025" height="53.6025" rx="26.8013" transform="rotate(-23.8621 5.90953 22.3439)" fill="white" stroke="#CCCCCC"/>
<rect x="22.9243" y="36.0869" width="9.45044" height="3.15015" transform="rotate(-23.8621 22.9243 36.0869)" fill="#999999"/>
<rect x="45.0107" y="26.3164" width="9.45044" height="3.15015" transform="rotate(-23.8621 45.0107 26.3164)" fill="#999999"/>
<rect x="34.8545" y="42.291" width="17.8508" height="3.15015" transform="rotate(-23.8621 34.8545 42.291)" fill="#999999"/>
<circle cx="98.7048" cy="6.30054" r="5.25024" fill="#C4C4C4"/>
<circle cx="5.25024" cy="81.9041" r="4.75024" stroke="#999999"/>
<rect x="106.289" y="62.0681" width="35.0811" height="49.5015" rx="7" transform="rotate(2.5 106.289 62.0681)" fill="#EEEEEE" stroke="#999999" stroke-width="2"/>
<rect x="83.8497" y="58.1259" width="39.0811" height="53.5015" rx="9" transform="rotate(-7.5 83.8497 58.1259)" fill="#FAFAFA" stroke="#999999" stroke-width="2"/>
<path d="M86.0159 66.9184C85.4392 62.5379 88.5228 58.5193 92.9032 57.9426L113.804 55.191C118.184 54.6143 122.203 57.6978 122.78 62.0783L123.282 65.8908L86.5178 70.7308L86.0159 66.9184Z" fill="#EEEEEE"/>
<rect x="129.731" y="55.6914" width="1.54504" height="5.15015" rx="0.772522" transform="rotate(82.5 129.731 55.6914)" fill="#999999"/>
<rect x="115.621" y="47.1597" width="1.54504" height="5.15015" rx="0.772522" transform="rotate(-7.5 115.621 47.1597)" fill="#999999"/>
<rect x="124.674" y="48.5649" width="1.54504" height="5.15015" rx="0.772522" transform="rotate(37.5 124.674 48.5649)" fill="#999999"/>
<rect x="90.3608" y="72.3027" width="29.8709" height="2.06006" rx="1.03003" transform="rotate(-7.5 90.3608 72.3027)" fill="#DCDCDC"/>
<rect x="91.7056" y="82.5146" width="29.8709" height="2.06006" rx="1.03003" transform="rotate(-7.5 91.7056 82.5146)" fill="#DCDCDC"/>
<rect x="93.0498" y="92.7271" width="29.8709" height="2.06006" rx="1.03003" transform="rotate(-7.5 93.0498 92.7271)" fill="#DCDCDC"/>
<rect x="90.8989" y="76.3872" width="10.8153" height="2.06006" rx="1.03003" transform="rotate(-7.5 90.8989 76.3872)" fill="#EEEEEE"/>
<rect x="92.2432" y="86.5996" width="10.8153" height="2.06006" rx="1.03003" transform="rotate(-7.5 92.2432 86.5996)" fill="#EEEEEE"/>
<rect x="93.5879" y="96.8115" width="10.8153" height="2.06006" rx="1.03003" transform="rotate(-7.5 93.5879 96.8115)" fill="#EEEEEE"/>
</svg>
