<svg width="56" height="56" viewBox="0 0 56 56" fill="none" xmlns="http://www.w3.org/2000/svg">
<path d="M56 28C56 43.464 43.464 56 28 56C12.536 56 0 43.464 0 28C0 12.536 12.536 0 28 0C43.464 0 56 12.536 56 28Z" fill="#EB7825"/>
<path d="M30.6688 42.8744C30.6688 44.12 29.659 45.1297 28.4135 45.1297C27.1679 45.1297 26.1582 44.12 26.1582 42.8744C26.1582 41.6289 27.1679 40.6191 28.4135 40.6191C29.659 40.6191 30.6688 41.6289 30.6688 42.8744Z" fill="white"/>
<path d="M28.4138 35.543C27.4801 35.543 26.7223 34.7851 26.7223 33.8514V31.5734C26.7223 29.4263 28.0847 27.5022 30.1099 26.7874C32.805 25.8379 34.6164 22.9665 34.6164 20.8826C34.6164 17.461 31.8354 14.68 28.4138 14.68C24.9923 14.68 22.2113 17.461 22.2113 20.8826C22.2113 21.8163 21.4534 22.5741 20.5197 22.5741C19.5859 22.5741 18.8281 21.8163 18.8281 20.8826C18.8281 15.5981 23.1273 11.2969 28.4138 11.2969C33.7004 11.2969 37.9995 15.5981 37.9995 20.8826C37.9995 24.6448 35.0289 28.6392 31.2353 29.9789C30.5588 30.2155 30.1054 30.8581 30.1054 31.5755V33.8514C30.1054 34.7851 29.3476 35.543 28.4138 35.543Z" fill="white"/>
</svg>
