<svg width="24" height="24" viewBox="0 0 24 24" fill="none" xmlns="http://www.w3.org/2000/svg">
<g clip-path="url(#clip0)">
<path d="M15.0621 8.69531C14.7516 8.69531 14.5 8.94692 14.5 9.25737V19.8803C14.5 20.1906 14.7516 20.4424 15.0621 20.4424C15.3725 20.4424 15.6241 20.1906 15.6241 19.8803V9.25737C15.6241 8.94692 15.3725 8.69531 15.0621 8.69531Z" fill="#7D818B"/>
<path d="M8.42974 8.69531C8.11929 8.69531 7.86768 8.94692 7.86768 9.25737V19.8803C7.86768 20.1906 8.11929 20.4424 8.42974 20.4424C8.74019 20.4424 8.9918 20.1906 8.9918 19.8803V9.25737C8.9918 8.94692 8.74019 8.69531 8.42974 8.69531Z" fill="#7D818B"/>
<path d="M3.59634 7.14505V20.993C3.59634 21.8115 3.89648 22.5802 4.42077 23.1317C4.94266 23.6848 5.66894 23.9988 6.42904 24.0001H17.0634C17.8237 23.9988 18.55 23.6848 19.0717 23.1317C19.596 22.5802 19.8961 21.8115 19.8961 20.993V7.14505C20.9383 6.86841 21.6137 5.86153 21.4743 4.79208C21.3346 3.72285 20.4237 2.92301 19.3452 2.92279H16.4675V2.22021C16.4708 1.62939 16.2372 1.06206 15.819 0.644687C15.4007 0.227533 14.8325 -0.00475636 14.2417 7.38502e-05H9.25076C8.65994 -0.00475636 8.09173 0.227533 7.67348 0.644687C7.25523 1.06206 7.02162 1.62939 7.02492 2.22021V2.92279H4.14721C3.06875 2.92301 2.15782 3.72285 2.01818 4.79208C1.87877 5.86153 2.55412 6.86841 3.59634 7.14505ZM17.0634 22.8759H6.42904C5.46805 22.8759 4.72047 22.0504 4.72047 20.993V7.19445H18.772V20.993C18.772 22.0504 18.0244 22.8759 17.0634 22.8759ZM8.14904 2.22021C8.14531 1.92755 8.26035 1.64586 8.46805 1.43926C8.67553 1.23266 8.95788 1.11915 9.25076 1.1242H14.2417C14.5346 1.11915 14.8169 1.23266 15.0244 1.43926C15.2321 1.64564 15.3471 1.92755 15.3434 2.22021V2.92279H8.14904V2.22021ZM4.14721 4.04691H19.3452C19.904 4.04691 20.357 4.49985 20.357 5.05862C20.357 5.61739 19.904 6.07033 19.3452 6.07033H4.14721C3.58844 6.07033 3.1355 5.61739 3.1355 5.05862C3.1355 4.49985 3.58844 4.04691 4.14721 4.04691Z" fill="#7D818B"/>
<path d="M11.7461 8.69531C11.4357 8.69531 11.1841 8.94692 11.1841 9.25737V19.8803C11.1841 20.1906 11.4357 20.4424 11.7461 20.4424C12.0566 20.4424 12.3082 20.1906 12.3082 19.8803V9.25737C12.3082 8.94692 12.0566 8.69531 11.7461 8.69531Z" fill="#7D818B"/>
</g>
<defs>
<clipPath id="clip0">
<rect width="24" height="24" fill="white"/>
</clipPath>
</defs>
</svg>
