<svg width="18" height="18" viewBox="0 0 18 18" fill="none" xmlns="http://www.w3.org/2000/svg">
<g opacity="0.75">
<path d="M9 0C4.0374 0 0 4.0374 0 9C0 11.1735 0.7746 13.1694 2.0622 14.7264C2.0655 14.7309 2.0658 14.7366 2.0694 14.7408C2.9991 15.8619 4.1667 16.7214 5.4678 17.2767C5.4828 17.283 5.4975 17.2899 5.5125 17.2962C5.6178 17.3406 5.7243 17.3817 5.8311 17.4219C5.8731 17.4378 5.9151 17.454 5.9577 17.4693C6.0498 17.5023 6.1425 17.5335 6.2358 17.5635C6.2955 17.5827 6.3552 17.6016 6.4155 17.6196C6.498 17.6442 6.5808 17.6679 6.6642 17.6904C6.7374 17.7102 6.8112 17.7285 6.885 17.7462C6.9597 17.7642 7.0347 17.7822 7.11 17.7981C7.194 17.8161 7.2789 17.832 7.3641 17.8476C7.4325 17.8602 7.5006 17.8734 7.5696 17.8845C7.6641 17.8998 7.7592 17.9118 7.8546 17.9241C7.9161 17.9319 7.9773 17.9409 8.0391 17.9475C8.1471 17.9589 8.256 17.967 8.3652 17.9745C8.4159 17.9781 8.4663 17.9835 8.5173 17.9862C8.6766 17.9952 8.8377 18 9 18C9.1623 18 9.3234 17.9952 9.4833 17.9868C9.5343 17.9841 9.5847 17.9787 9.6354 17.9751C9.7446 17.9673 9.8535 17.9595 9.9615 17.9481C10.0233 17.9415 10.0845 17.9325 10.146 17.9247C10.2414 17.9124 10.3365 17.9004 10.431 17.8851C10.4997 17.874 10.5681 17.8608 10.6365 17.8482C10.7214 17.8326 10.8063 17.8167 10.8906 17.7987C10.9659 17.7825 11.0406 17.7648 11.1156 17.7468C11.1894 17.7288 11.2632 17.7105 11.3364 17.691C11.4198 17.6688 11.5026 17.6448 11.5851 17.6202C11.6454 17.6022 11.7051 17.5833 11.7648 17.5641C11.8581 17.5341 11.9508 17.5029 12.0429 17.4699C12.0852 17.4546 12.1272 17.4384 12.1695 17.4225C12.2766 17.3823 12.3828 17.3409 12.4881 17.2968C12.5031 17.2905 12.5178 17.2836 12.5328 17.2773C13.8336 16.722 15.0015 15.8625 15.9312 14.7414C15.9348 14.7372 15.9351 14.7312 15.9384 14.727C17.2254 13.1694 18 11.1735 18 9C18 4.0374 13.9626 0 9 0ZM12.6471 16.566C12.6426 16.5681 12.6384 16.5705 12.6339 16.5726C12.5268 16.6242 12.4179 16.6728 12.3081 16.7202C12.2832 16.7307 12.2586 16.7415 12.2337 16.752C12.1377 16.7922 12.0405 16.8303 11.9427 16.8669C11.9019 16.8822 11.8611 16.8972 11.82 16.9116C11.7333 16.9425 11.6463 16.9722 11.5584 17.0004C11.5038 17.0178 11.4489 17.0343 11.394 17.0505C11.316 17.0739 11.2377 17.0964 11.1585 17.1174C11.0919 17.1351 11.0247 17.1513 10.9575 17.1672C10.887 17.184 10.8168 17.2011 10.7457 17.2161C10.668 17.2326 10.5897 17.2467 10.5117 17.2608C10.4484 17.2725 10.3854 17.2848 10.3215 17.295C10.2336 17.3088 10.1448 17.3199 10.0563 17.331C10.0002 17.3382 9.9444 17.3466 9.8877 17.3526C9.7866 17.3634 9.6846 17.3703 9.5829 17.3775C9.5376 17.3805 9.4926 17.3856 9.4467 17.388C9.2982 17.3958 9.1494 17.4 9 17.4C8.8506 17.4 8.7018 17.3958 8.5536 17.388C8.508 17.3856 8.463 17.3808 8.4174 17.3775C8.3154 17.3706 8.2137 17.3634 8.1126 17.3526C8.0559 17.3466 8.0001 17.3382 7.944 17.331C7.8555 17.3199 7.7667 17.3088 7.6788 17.295C7.6149 17.2848 7.5519 17.2725 7.4886 17.2608C7.4103 17.2467 7.332 17.2323 7.2546 17.2161C7.1835 17.2011 7.113 17.184 7.0428 17.1672C6.9756 17.151 6.9084 17.1351 6.8418 17.1174C6.7629 17.0964 6.6843 17.0736 6.6063 17.0505C6.5514 17.0343 6.4965 17.0178 6.4419 17.0004C6.354 16.9722 6.2667 16.9425 6.1803 16.9116C6.1392 16.8969 6.0984 16.8819 6.0576 16.8669C5.9598 16.8303 5.8626 16.7922 5.7666 16.752C5.7417 16.7418 5.7174 16.731 5.6925 16.7205C5.5827 16.6734 5.4738 16.6245 5.3664 16.5729C5.3619 16.5708 5.3577 16.5687 5.3532 16.5663C4.3065 16.0599 3.3819 15.3411 2.6316 14.4681C3.2115 12.3327 4.8531 10.6113 6.9651 9.9264C7.0068 9.9519 7.0503 9.9747 7.0932 9.9987C7.1184 10.0128 7.1433 10.0278 7.1688 10.0413C7.2582 10.0887 7.3488 10.1331 7.4415 10.173C7.5126 10.2042 7.5861 10.2306 7.6593 10.2576C7.6737 10.2627 7.6881 10.2684 7.7025 10.2735C8.1093 10.4175 8.5446 10.5 9 10.5C9.4554 10.5 9.8907 10.4175 10.2972 10.2735C10.3116 10.2684 10.326 10.2627 10.3404 10.2576C10.4136 10.2306 10.4871 10.2042 10.5582 10.173C10.6509 10.1331 10.7415 10.0887 10.8309 10.0413C10.8564 10.0275 10.8813 10.0128 10.9065 9.9987C10.9494 9.9747 10.9932 9.9519 11.0352 9.9261C13.1472 10.6113 14.7885 12.3327 15.3687 14.4678C14.6184 15.3405 13.6938 16.0593 12.6471 16.566ZM5.7 6.6C5.7 4.7805 7.1805 3.3 9 3.3C10.8195 3.3 12.3 4.7805 12.3 6.6C12.3 7.7574 11.6997 8.7759 10.7952 9.3651C10.677 9.4419 10.554 9.5106 10.4277 9.5706C10.4127 9.5778 10.398 9.5853 10.383 9.5922C9.5142 9.9873 8.4858 9.9873 7.617 9.5922C7.602 9.5853 7.587 9.5778 7.5723 9.5706C7.4457 9.5106 7.323 9.4419 7.2048 9.3651C6.3003 8.7759 5.7 7.7574 5.7 6.6ZM15.8187 13.8969C15.1386 11.8887 13.587 10.2657 11.6046 9.4947C12.3975 8.7804 12.9 7.749 12.9 6.6C12.9 4.4496 11.1504 2.7 9 2.7C6.8496 2.7 5.1 4.4496 5.1 6.6C5.1 7.749 5.6025 8.7804 6.3957 9.4947C4.4133 10.266 2.8617 11.8887 2.1816 13.8969C1.1877 12.5172 0.6 10.8264 0.6 9C0.6 4.3683 4.3683 0.6 9 0.6C13.6317 0.6 17.4 4.3683 17.4 9C17.4 10.8264 16.8123 12.5172 15.8187 13.8969Z" fill="white"/>
</g>
</svg>
