<svg width="48" height="34" viewBox="0 0 48 34" fill="none" xmlns="http://www.w3.org/2000/svg">
<rect x="0.5" y="0.5" width="47" height="33" rx="3.5" fill="white" stroke="#D9D9D9"/>
<path d="M20.2626 12.3047L18.7569 21.6741H21.1635L22.6682 12.3047H20.2626ZM27.5216 16.1213C26.6807 15.706 26.1651 15.4257 26.1651 15.0009C26.1754 14.6147 26.6011 14.219 27.5517 14.219C28.3335 14.1994 28.9082 14.3831 29.3442 14.566L29.5626 14.6634L29.8898 12.7031C29.4144 12.5194 28.6607 12.3169 27.7298 12.3169C25.3532 12.3169 23.6798 13.5525 23.6694 15.3198C23.6497 16.6239 24.8675 17.3475 25.7788 17.7817C26.7098 18.227 27.0266 18.5157 27.0266 18.9114C27.0164 19.5188 26.2739 19.7991 25.5811 19.7991C24.6211 19.7991 24.1055 19.6548 23.3227 19.3163L23.0058 19.1719L22.6692 21.2092C23.2345 21.4604 24.2742 21.6816 25.3533 21.6929C27.8789 21.6929 29.5224 20.476 29.543 18.5926C29.5513 17.5595 28.9091 16.7681 27.5216 16.1213ZM36.0594 12.3337H34.1975C33.6238 12.3337 33.1878 12.4987 32.9394 13.0875L29.3646 21.6741H31.8903L32.5859 19.8151H35.4115L35.7725 21.6816H38L36.0594 12.3337ZM33.2863 17.939C33.335 17.9437 34.2557 14.9043 34.2557 14.9043L34.9888 17.939C34.9888 17.939 33.7616 17.939 33.2863 17.939ZM16.746 12.3047L14.3882 18.6704L14.1313 17.415C13.6954 15.9665 12.3285 14.3925 10.8032 13.6106L12.9622 21.6648H15.5085L19.2923 12.3057H16.746V12.3047Z" fill="#2A437E"/>
<path d="M13.3382 13.5132C13.1544 12.7988 12.5684 12.3169 11.7726 12.3066H8.03846L8 12.48C10.9129 13.1981 13.3578 15.4078 14.151 17.4862L13.3382 13.5132Z" fill="#E8A943"/>
</svg>
