<svg width="24" height="24" viewBox="0 0 24 24" fill="none" xmlns="http://www.w3.org/2000/svg">
<g clip-path="url(#clip0)">
<path d="M23.713 19.376L13.8237 2.50163C13.4475 1.8548 12.7485 1.45312 12 1.45312C11.2515 1.45312 10.5525 1.8548 10.1776 2.50097L0.287016 19.376C0.0988594 19.698 0 20.0647 0 20.4375C0 21.6007 0.946219 22.5469 2.10938 22.5469H21.8906C23.0538 22.5469 24 21.6007 24 20.4375C24 20.0647 23.9011 19.698 23.713 19.376ZM12 18.3281C11.6117 18.3281 11.2969 18.0133 11.2969 17.625C11.2969 17.2366 11.6117 16.9219 12 16.9219C12.3883 16.9219 12.7031 17.2366 12.7031 17.625C12.7031 18.0133 12.3883 18.3281 12 18.3281ZM12.7031 14.8125C12.7031 15.2011 12.3886 15.5156 12 15.5156C11.6114 15.5156 11.2969 15.2011 11.2969 14.8125L11 7.78125C11 7.39261 11.4766 7.07812 12 7.07812C12.543 7.07812 13 7.39261 13 7.78125L12.7031 14.8125Z" fill="white"/>
</g>
<defs>
<clipPath id="clip0">
<rect width="24" height="24" fill="white"/>
</clipPath>
</defs>
</svg>
