<svg width="42" height="42" viewBox="0 0 42 42" fill="none" xmlns="http://www.w3.org/2000/svg">
<path d="M21 3.5C11.34 3.5 3.5 11.34 3.5 21C3.5 30.66 11.34 38.5 21 38.5C30.66 38.5 38.5 30.66 38.5 21C38.5 11.34 30.66 3.5 21 3.5ZM21 8.75C23.905 8.75 26.25 11.095 26.25 14C26.25 16.905 23.905 19.25 21 19.25C18.095 19.25 15.75 16.905 15.75 14C15.75 11.095 18.095 8.75 21 8.75ZM21 33.6C16.625 33.6 12.7575 31.36 10.5 27.965C10.5525 24.4825 17.5 22.575 21 22.575C24.4825 22.575 31.4475 24.4825 31.5 27.965C29.2425 31.36 25.375 33.6 21 33.6Z" fill="white"/>
</svg>
